<svg class="icon" viewBox="0 0 1024 1024" xmlns="http://www.w3.org/2000/svg" width="256" height="256"><defs><style/></defs><path d="M858.8 903.6H182.2c-61 0-110.8-49.6-110.8-110.8V279c0-61 49.6-110.8 110.8-110.8h676.6c61 0 110.8 49.6 110.8 110.8v513.8c-.2 61-49.8 110.8-110.8 110.8zM182.2 208.4c-39 0-70.8 31.8-70.8 70.8V793c0 39 31.8 70.8 70.8 70.8h676.6c39 0 70.8-31.8 70.8-70.8V279c0-39-31.8-70.8-70.8-70.8H182.2z"/><path d="M225.4 903.6c-11 0-20-9-20-20V188.4c0-11 9-20 20-20s20 9 20 20v695.2c0 11-8.8 20-20 20zm590 0c-11 0-20-9-20-20V188.4c0-11 9-20 20-20s20 9 20 20v695.2c0 11-9 20-20 20z"/><path d="M225.4 399.2h-134c-11 0-20-9-20-20s9-20 20-20h134c11 0 20 9 20 20s-8.8 20-20 20zm0 156.8h-134c-11 0-20-9-20-20s9-20 20-20h134c11 0 20 9 20 20s-8.8 20-20 20zm0 176.6h-134c-11 0-20-9-20-20s9-20 20-20h134c11 0 20 9 20 20s-8.8 20-20 20zm724-333.4h-134c-11 0-20-9-20-20s9-20 20-20h134c11 0 20 9 20 20s-9 20-20 20zm0 156.8h-134c-11 0-20-9-20-20s9-20 20-20h134c11 0 20 9 20 20s-9 20-20 20zm0 176.6h-134c-11 0-20-9-20-20s9-20 20-20h134c11 0 20 9 20 20s-9 20-20 20zM432 679.2c-3.4 0-7-.8-10-2.6-6.2-3.6-10-10.2-10-17.4V412.8c0-7.2 3.8-13.8 10-17.4 6.2-3.6 13.8-3.6 20 0l213.4 123.2c6.2 3.6 10 10.2 10 17.4s-3.8 13.8-10 17.4L442 676.4c-3.2 1.8-6.6 2.8-10 2.8zm20-231.8v177.2L605.4 536 452 447.4z"/></svg>