<svg class="icon" viewBox="0 0 1024 1024" xmlns="http://www.w3.org/2000/svg" width="128" height="128"><defs><style/></defs><path d="M781.988 485.483c-99.023 0-179.655 78.41-181.17 175.31l-85.484 72.044-92.556-78.006c-4.546-94.071-83.967-169.349-180.968-169.349-99.932 0-181.17 79.824-181.17 177.938v229.672c0 12.327 10.002 22.33 22.33 22.33h317.68c12.328 0 22.331-10.003 22.331-22.33V713.437l77.803 65.678c4.142 3.435 9.296 5.254 14.348 5.254 5.153 0 10.307-1.818 14.348-5.254l71.033-59.919v173.896c0 12.428 10.004 22.33 22.331 22.33h317.68c12.328 0 22.33-10.003 22.33-22.33V663.42c.202-98.114-81.036-177.938-180.866-177.938z"/><path d="M645.376 676.354v-11.822c1.113 3.94 1.113 8.083 0 11.822zM241.91 109.198c-101.043 0-183.09 82.148-183.09 183.091S140.966 475.38 241.91 475.38c101.043 0 183.191-82.148 183.191-183.091s-82.248-183.091-183.19-183.091zM781.988 475.48c-101.044 0-183.192-82.148-183.192-183.191s82.148-183.192 183.192-183.192 183.19 82.148 183.19 183.191c-.1 101.043-82.35 183.192-183.19 183.192z"/></svg>