<svg class="icon" viewBox="0 0 1024 1024" xmlns="http://www.w3.org/2000/svg" width="128" height="128"><defs><style/></defs><path d="M757.888 621.995l172.928 248.234c13.696 19.67 8.96 46.806-10.624 60.587a43.136 43.136 0 0 1-60.288-10.667L684.501 668.416a300.843 300.843 0 0 1-122.922 26.112c-167.382 0-303.062-136.363-303.062-304.555s135.68-304.64 303.062-304.64S864.64 221.696 864.64 389.888a304.512 304.512 0 0 1-106.752 232.107zM128 661.376h174.464a42.667 42.667 0 0 1 42.667 42.667v1.706a42.667 42.667 0 0 1-42.667 42.667H128a42.667 42.667 0 0 1-42.667-42.667v-1.706A42.667 42.667 0 0 1 128 661.376zm0-174.037h44.544a42.667 42.667 0 0 1 42.667 42.666v1.707a42.667 42.667 0 0 1-42.667 42.667H128a42.667 42.667 0 0 1-42.667-42.667v-1.707A42.667 42.667 0 0 1 128 487.34zm0 348.074h347.648a42.667 42.667 0 0 1 42.667 42.667v1.707a42.667 42.667 0 0 1-42.667 42.666H128a42.667 42.667 0 0 1-42.667-42.666v-1.707A42.667 42.667 0 0 1 128 835.413zm433.579-227.968c119.552 0 216.49-97.408 216.49-217.557s-96.896-217.515-216.49-217.515S345.13 269.74 345.13 389.888s96.896 217.557 216.448 217.557z"/><path d="M757.888 621.995l172.928 248.234c13.696 19.67 8.96 46.806-10.624 60.587a43.136 43.136 0 0 1-60.288-10.667L684.501 668.416a300.843 300.843 0 0 1-122.922 26.112c-167.382 0-303.062-136.363-303.062-304.555S394.197 85.42 561.58 85.42 864.64 221.78 864.64 389.973a304.47 304.47 0 0 1-106.752 232.022zM128 661.376h174.464a42.667 42.667 0 0 1 42.667 42.667v1.706a42.667 42.667 0 0 1-42.667 42.667H128a42.667 42.667 0 0 1-42.667-42.667v-1.706A42.667 42.667 0 0 1 128 661.376zm0-174.037h44.544a42.667 42.667 0 0 1 42.667 42.666v1.707a42.667 42.667 0 0 1-42.667 42.667H128a42.667 42.667 0 0 1-42.667-42.667v-1.707A42.667 42.667 0 0 1 128 487.34zm0 348.074h347.648a42.667 42.667 0 0 1 42.667 42.667v1.707a42.667 42.667 0 0 1-42.667 42.666H128a42.667 42.667 0 0 1-42.667-42.666v-1.707A42.667 42.667 0 0 1 128 835.413zm433.579-227.968c119.552 0 216.49-97.408 216.49-217.557s-96.938-217.557-216.49-217.557-216.491 97.408-216.491 217.557 96.939 217.557 216.49 217.557z"/></svg>